<?xml version="1.0" standalone="yes"?>
<svg xmlns="http://www.w3.org/2000/svg" width="1700" height="2200">
<path style="fill:#010101; stroke:none;" d="M0 0L0 2200L1700 2200L1700 0L0 0z"/>
<path style="fill:#05013a; stroke:none;" d="M350.667 781.333C350.222 781.777 351.278 781.722 351.333 781.667C351.778 781.222 350.722 781.278 350.667 781.333z"/>
<path style="fill:#0b016d; stroke:none;" d="M262 948C260.919 945.879 260.121 945.081 258 944C259.629 936.862 253.63 929.32 246 931C241.635 925.266 231.637 928.139 227.001 932.13C218.475 939.469 210.794 947.778 202.37 955.205C196.48 960.399 188.237 966.21 184.264 973.093C180.963 978.813 182.436 985.025 186.329 989.996C191.517 996.623 197.8 1002.18 203.536 1008.28C214.321 1019.75 224.821 1031.4 235.675 1042.82C241.304 1048.74 248.7 1060.05 257 1061.65C263.938 1062.99 268.554 1058.03 273.428 1053.96C284.367 1044.82 294.134 1034.18 304.745 1024.65C309.566 1020.32 314.685 1016.01 314.863 1009C315.019 1002.92 312.645 994.152 307.826 990.278C303.664 986.932 299.349 986.65 296 982C302.925 978.228 308.712 971.39 306.683 963C305.928 959.877 302.946 957.425 303.153 954.089C303.424 949.708 307.579 944.528 309.706 940.829C312.784 935.478 314.764 927.72 319.39 923.51C322.596 920.593 327.964 919.365 332 918C331.658 925.964 329.905 934.267 328 942C346.836 940.462 367.078 930.017 377.452 914C379.938 910.161 383.552 904.587 384.219 900C384.714 896.597 382.081 894.218 381.716 891.004C381.145 885.984 388.473 881.646 392.981 882.789C396.802 883.757 399.065 888.309 398.254 892C397.612 894.919 395.502 897.346 394.235 900C391.711 905.283 390.049 910.766 387.319 916C378.811 932.312 367.36 944.975 352 955.329C342.84 961.503 335.215 965.993 324 966C322.144 980.578 315.162 996.004 318.245 1010.83C320.069 1019.6 321.967 1029.06 324.724 1037.58C326.111 1041.86 329.529 1048.28 327.888 1052.83C326.098 1057.8 319.427 1060.95 315.579 1064.14C304.14 1073.64 292.546 1083.11 280.831 1092.28C274.116 1097.54 263.728 1104.91 269.318 1114.91C272.647 1120.86 280.115 1122.1 286 1119.64C296.385 1115.28 304.714 1106.47 314.093 1100.42C324.639 1093.62 334.582 1085.97 345.011 1079.01C350.724 1075.2 358.041 1071.45 360.694 1064.71C364.299 1055.57 358.771 1042.23 357.259 1033C356.645 1029.25 357.089 1025.68 356 1022C369.641 1020.92 383.496 1017.85 397 1015.59C402.547 1014.66 410.451 1011.8 415.826 1014.23C423.233 1017.59 430.328 1026.31 436.321 1031.77C445.096 1039.76 454.576 1047.04 463.424 1054.99C469.485 1060.43 478.034 1069.57 486.985 1065.77C493.651 1062.94 496.736 1054.86 493.231 1048.42C487.982 1038.78 476.786 1031.13 469.325 1023.17C460.267 1013.51 450.403 1004.64 441.34 994.985C436.834 990.186 432.266 983.304 425.83 980.993C420.452 979.062 414.487 980.247 409 980.834C399.651 981.835 390.33 982.821 381 984C381.905 976.895 384.904 969.967 386.626 963C388.724 954.51 389.687 945.234 392.613 937.004C393.911 933.351 396.702 930.562 398.12 926.961C401.403 918.625 402.105 909.757 403.129 901.039C403.579 897.206 404.956 893.954 405 890C410.803 889.88 416.01 888.611 421 885.532C425.625 882.678 429.019 878.915 431.63 874.196C437.501 863.589 438.114 849.552 430.946 839.156C419.035 821.881 390.478 819.205 377.688 836.989C373.465 842.86 371.627 849.077 370 856C366.814 850.817 363.482 845.713 360.084 840.665C357.968 837.522 355.207 833.996 355.389 830C355.584 825.713 357.741 821.045 359.066 817C361.004 811.082 362.293 804.984 364 799C365.545 793.583 367.16 786.964 361.66 783.089C357.145 779.909 349.896 780.611 346.895 785.479C339.241 797.896 334.483 814.128 330.093 828C326.615 838.994 333.558 851.671 337 862C338.619 866.858 340.755 871.821 339.275 876.996C337.823 882.078 333.221 884.267 329 886.8C320.33 892.004 311.039 896.702 303.019 902.865C292.735 910.768 291.299 926.191 283.034 935.682C280.483 938.612 276.327 937.755 273.09 939.453C269.032 941.581 265.839 945.454 262 948z"/>
<path style="fill:#030139; stroke:none;" d="M358 781C359.248 781.685 359.548 781.749 361 782C359.752 781.315 359.452 781.251 358 781z"/>
<path style="fill:#070153; stroke:none;" d="M345 787L344 792C345.318 790.074 345.651 789.234 345 787z"/>
<path style="fill:#050137; stroke:none;" d="M343.333 792.667C343.278 792.722 343.222 793.778 343.667 793.333C343.722 793.278 343.778 792.222 343.333 792.667z"/>
<path style="fill:#030137; stroke:none;" d="M357 820L357 823C357.696 821.446 357.696 821.554 357 820z"/>
<path style="fill:#05013a; stroke:none;" d="M331 822L331 825C331.696 823.446 331.696 823.554 331 822z"/>
<path style="fill:#050135; stroke:none;" d="M394 825C395.769 825.779 397.036 825.912 399 826C397.231 825.221 395.964 825.088 394 825M407 825C409.052 825.874 410.747 825.953 413 826C410.948 825.126 409.253 825.047 407 825z"/>
<path style="fill:#05013e; stroke:none;" d="M329 827L329 830C329.696 828.446 329.696 828.554 329 827z"/>
<path style="fill:#030135; stroke:none;" d="M355 827L355 830C355.696 828.446 355.696 828.554 355 827M389.667 827.333C389.223 827.777 390.278 827.722 390.333 827.667C390.778 827.222 389.722 827.278 389.667 827.333z"/>
<path style="fill:#050142; stroke:none;" d="M416.667 827.333C416.223 827.777 417.278 827.722 417.333 827.667C417.778 827.222 416.722 827.278 416.667 827.333z"/>
<path style="fill:#05013a; stroke:none;" d="M329.333 839.667C329.277 839.723 329.223 840.778 329.667 840.333C329.722 840.278 329.778 839.222 329.333 839.667z"/>
<path style="fill:#030137; stroke:none;" d="M375 839L375 842C375.696 840.446 375.696 840.554 375 839z"/>
<path style="fill:#050145; stroke:none;" d="M433 843L433 846C433.696 844.446 433.696 844.554 433 843z"/>
<path style="fill:#050142; stroke:none;" d="M331.333 845.667C331.278 845.722 331.222 846.778 331.667 846.333C331.722 846.278 331.778 845.222 331.333 845.667z"/>
<path style="fill:#030137; stroke:none;" d="M371 849L371 853C371.71 851.241 371.71 850.759 371 849z"/>
<path style="fill:#050137; stroke:none;" d="M431 873L431 876C432.015 874.861 432.309 874.388 433 873L431 873z"/>
<path style="fill:#05592b; stroke:none;" d="M390 882C391.769 882.779 393.036 882.912 395 883C393.231 882.221 391.964 882.088 390 882z"/>
<path style="fill:#076127; stroke:none;" d="M387.667 883.333C387.223 883.777 388.278 883.722 388.333 883.667C388.778 883.222 387.722 883.278 387.667 883.333z"/>
<path style="fill:#039501; stroke:none;" d="M389.001 883.639C388.01 883.921 386.946 884.308 386.059 884.839C378.642 889.283 385.543 894.82 384.35 901C383.273 906.574 378.209 912.739 374.671 917.001C366.303 927.083 355.453 935.133 343 939.258C339.462 940.43 335.711 941.98 332 942.444C328.312 942.905 325.297 942.119 322.104 944.576C315.269 949.834 307.403 966.029 322 965.74C350.104 965.183 374.179 941.77 386.68 918C389.369 912.886 390.519 907.296 392.85 902.089C394.3 898.85 397.149 896.635 397.768 892.996C398.827 886.761 395.682 881.737 389.001 883.639z"/>
<path style="fill:#056e1c; stroke:none;" d="M385.667 884.333C385.223 884.777 386.278 884.722 386.333 884.667C386.778 884.222 385.722 884.278 385.667 884.333M383.667 885.333C383.222 885.778 384.278 885.722 384.333 885.667C384.778 885.222 383.722 885.278 383.667 885.333z"/>
<path style="fill:#066224; stroke:none;" d="M397.333 885.667C397.278 885.722 397.222 886.778 397.667 886.333C397.722 886.278 397.778 885.222 397.333 885.667z"/>
<path style="fill:#074739; stroke:none;" d="M382 886L383 887L382 886z"/>
<path style="fill:#076127; stroke:none;" d="M381 887L381 892C381.83 889.969 381.83 889.031 381 887z"/>
<path style="fill:#057319; stroke:none;" d="M398 888L398 893C398.83 890.969 398.83 890.03 398 888z"/>
<path style="fill:#066224; stroke:none;" d="M382 892L382 895C382.696 893.446 382.696 893.554 382 892z"/>
<path style="fill:#030135; stroke:none;" d="M317.667 893.333C317.222 893.777 318.278 893.722 318.333 893.667C318.778 893.222 317.722 893.278 317.667 893.333M314.667 895.333C314.222 895.777 315.278 895.722 315.333 895.667C315.778 895.222 314.722 895.278 314.667 895.333z"/>
<path style="fill:#050137; stroke:none;" d="M403 897L403 904C404.059 901.466 404.059 899.534 403 897z"/>
<path style="fill:#045e25; stroke:none;" d="M385.333 898.667C385.278 898.722 385.223 899.778 385.667 899.333C385.722 899.278 385.778 898.222 385.333 898.667z"/>
<path style="fill:#056621; stroke:none;" d="M393 899L393 902C393.696 900.446 393.696 900.554 393 899z"/>
<path style="fill:#056a20; stroke:none;" d="M384.333 900.667C384.278 900.722 384.222 901.778 384.667 901.333C384.722 901.278 384.778 900.222 384.333 900.667z"/>
<path style="fill:#050142; stroke:none;" d="M303 903L306 902C304.222 901.045 303.979 901.234 303 903z"/>
<path style="fill:#066224; stroke:none;" d="M383.333 902.667C383.277 902.723 383.223 903.778 383.667 903.333C383.722 903.278 383.778 902.222 383.333 902.667z"/>
<path style="fill:#057319; stroke:none;" d="M392 902L392 905C392.696 903.446 392.696 903.554 392 902z"/>
<path style="fill:#056621; stroke:none;" d="M382.333 904.667C382.277 904.723 382.223 905.778 382.667 905.333C382.722 905.278 382.778 904.222 382.333 904.667M381.333 906.667C381.277 906.723 381.223 907.778 381.667 907.333C381.722 907.278 381.778 906.222 381.333 906.667z"/>
<path style="fill:#064f32; stroke:none;" d="M391.333 906.667C391.277 906.723 391.223 907.778 391.667 907.333C391.722 907.278 391.778 906.222 391.333 906.667z"/>
<path style="fill:#056e1c; stroke:none;" d="M380.333 908.667C380.278 908.722 380.222 909.778 380.667 909.333C380.722 909.278 380.778 908.222 380.333 908.667z"/>
<path style="fill:#05013e; stroke:none;" d="M297.333 909.667C297.278 909.722 297.223 910.778 297.667 910.333C297.722 910.278 297.778 909.222 297.333 909.667z"/>
<path style="fill:#073e3f; stroke:none;" d="M390.333 909.667C390.278 909.722 390.223 910.778 390.667 910.333C390.722 910.278 390.778 909.222 390.333 909.667z"/>
<path style="fill:#07443a; stroke:none;" d="M389.333 911.667C389.278 911.722 389.222 912.778 389.667 912.333C389.722 912.278 389.778 911.222 389.333 911.667z"/>
<path style="fill:#050137; stroke:none;" d="M401 912L401 917C401.83 914.969 401.83 914.031 401 912z"/>
<path style="fill:#074739; stroke:none;" d="M375 916L376 917L375 916z"/>
<path style="fill:#050137; stroke:none;" d="M327 919C328.248 919.685 328.548 919.749 330 920C328.752 919.315 328.452 919.251 327 919z"/>
<path style="fill:#030137; stroke:none;" d="M331 919L331 924C331.83 921.969 331.83 921.031 331 919z"/>
<path style="fill:#05013a; stroke:none;" d="M322.667 921.333C322.222 921.777 323.278 921.722 323.333 921.667C323.778 921.222 322.722 921.278 322.667 921.333z"/>
<path style="fill:#072b4d; stroke:none;" d="M384.333 921.667C384.278 921.722 384.222 922.778 384.667 922.333C384.722 922.278 384.778 921.222 384.333 921.667z"/>
<path style="fill:#050137; stroke:none;" d="M399 922L399 926C399.71 924.24 399.71 923.759 399 922z"/>
<path style="fill:#091f55; stroke:none;" d="M383.333 923.667C383.277 923.723 383.223 924.778 383.667 924.333C383.722 924.278 383.778 923.222 383.333 923.667z"/>
<path style="fill:#072551; stroke:none;" d="M381.333 926.667C381.278 926.722 381.222 927.778 381.667 927.333C381.722 927.278 381.778 926.222 381.333 926.667z"/>
<path style="fill:#050137; stroke:none;" d="M233 927C235.89 928.213 238.874 927.998 242 928C239.11 926.787 236.126 927.002 233 927z"/>
<path style="fill:#07413d; stroke:none;" d="M364 927L365 928L364 927z"/>
<path style="fill:#030139; stroke:none;" d="M397.333 928.667C397.277 928.723 397.223 929.778 397.667 929.333C397.722 929.278 397.778 928.222 397.333 928.667z"/>
<path style="fill:#050137; stroke:none;" d="M248 929C249.376 929.911 250.44 930.404 252 931C250.686 929.382 250.123 929.307 248 929M329 930L329 935C329.83 932.969 329.83 932.031 329 930z"/>
<path style="fill:#073e3f; stroke:none;" d="M360 930L361 931L360 930z"/>
<path style="fill:#056a20; stroke:none;" d="M355.667 933.333C355.222 933.778 356.278 933.722 356.333 933.667C356.778 933.222 355.722 933.278 355.667 933.333z"/>
<path style="fill:#066224; stroke:none;" d="M353.667 934.333C353.222 934.777 354.278 934.722 354.333 934.667C354.778 934.222 353.722 934.278 353.667 934.333z"/>
<path style="fill:#045e25; stroke:none;" d="M351.667 935.333C351.223 935.777 352.278 935.722 352.333 935.667C352.778 935.222 351.722 935.278 351.667 935.333z"/>
<path style="fill:#056621; stroke:none;" d="M349.667 936.333C349.223 936.777 350.278 936.722 350.333 936.667C350.778 936.222 349.722 936.278 349.667 936.333z"/>
<path style="fill:#064f32; stroke:none;" d="M346.667 937.333C346.223 937.777 347.278 937.722 347.333 937.667C347.778 937.222 346.722 937.278 346.667 937.333z"/>
<path style="fill:#07443a; stroke:none;" d="M373 937L374 938L373 937M343 938C344.248 938.685 344.548 938.749 346 939C344.752 938.315 344.452 938.251 343 938z"/>
<path style="fill:#064f32; stroke:none;" d="M372 938L373 939L372 938z"/>
<path style="fill:#073e3f; stroke:none;" d="M340 939C341.249 939.685 341.548 939.749 343 940C341.752 939.315 341.451 939.251 340 939z"/>
<path style="fill:#065330; stroke:none;" d="M371 939L372 940L371 939z"/>
<path style="fill:#072d4b; stroke:none;" d="M336 940C337.248 940.685 337.548 940.749 339 941C337.752 940.315 337.452 940.251 336 940z"/>
<path style="fill:#05552d; stroke:none;" d="M370 940L371 941L370 940z"/>
<path style="fill:#072b4d; stroke:none;" d="M332 941C333.248 941.685 333.548 941.749 335 942C333.751 941.315 333.452 941.251 332 941z"/>
<path style="fill:#056e1c; stroke:none;" d="M335.667 941.333C335.222 941.778 336.278 941.722 336.333 941.667C336.778 941.222 335.722 941.278 335.667 941.333z"/>
<path style="fill:#065330; stroke:none;" d="M369 941L370 942L369 941z"/>
<path style="fill:#09314f; stroke:none;" d="M328 942C329.248 942.685 329.548 942.749 331 943C329.752 942.315 329.452 942.251 328 942z"/>
<path style="fill:#056e1c; stroke:none;" d="M331.667 942.333C331.222 942.778 332.278 942.722 332.333 942.667C332.778 942.222 331.722 942.278 331.667 942.333z"/>
<path style="fill:#065330; stroke:none;" d="M368 942L369 943L368 942z"/>
<path style="fill:#02012a; stroke:none;" d="M307.333 943.667C307.278 943.722 307.223 944.778 307.667 944.333C307.722 944.278 307.778 943.222 307.333 943.667z"/>
<path style="fill:#064f32; stroke:none;" d="M367 943L368 944L367 943z"/>
<path style="fill:#054737; stroke:none;" d="M366 944L367 945L366 944z"/>
<path style="fill:#03014b; stroke:none;" d="M278 947C278.031 948.832 277.92 948.559 279 950C278.749 948.549 278.685 948.248 278 947z"/>
<path style="fill:#02012e; stroke:none;" d="M305.333 947.667C305.277 947.723 305.223 948.778 305.667 948.333C305.722 948.278 305.778 947.222 305.333 947.667z"/>
<path style="fill:#010101; stroke:none;" d="M276 949C274.205 951.355 272.286 953.104 270 955C274.009 960.96 280.46 970.045 286.999 973.252C290.858 975.145 297.093 970.349 296.033 966.019C294.908 961.421 288.412 961.859 285.04 959.925C280.526 957.336 279.506 953.591 278 949L276 949z"/>
<path style="fill:#014b01; stroke:none;" d="M317 950L318 951L317 950z"/>
<path style="fill:#02012e; stroke:none;" d="M303.333 951.667C303.278 951.722 303.222 952.778 303.667 952.333C303.722 952.278 303.778 951.222 303.333 951.667z"/>
<path style="fill:#054b33; stroke:none;" d="M356 952L357 953L356 952z"/>
<path style="fill:#065330; stroke:none;" d="M335 964C336.248 964.685 336.548 964.749 338 965C336.752 964.315 336.452 964.251 335 964z"/>
<path style="fill:#014d01; stroke:none;" d="M318 965L319 966L318 965z"/>
<path style="fill:#07443a; stroke:none;" d="M324 965C327.163 966.327 330.586 966 334 966C330.837 964.673 327.414 965 324 965z"/>
<path style="fill:#050135; stroke:none;" d="M297.333 966.667C297.278 966.722 297.222 967.778 297.667 967.333C297.722 967.278 297.778 966.222 297.333 966.667z"/>
<path style="fill:#030135; stroke:none;" d="M307.333 966.667C307.278 966.722 307.222 967.778 307.667 967.333C307.722 967.278 307.778 966.222 307.333 966.667z"/>
<path style="fill:#05013a; stroke:none;" d="M323 966L323 971C323.83 968.97 323.83 968.031 323 966z"/>
<path style="fill:#030135; stroke:none;" d="M383 972L383 975C383.696 973.446 383.696 973.554 383 972z"/>
<path style="fill:#050137; stroke:none;" d="M321 977L321 982C321.83 979.969 321.83 979.031 321 977z"/>
<path style="fill:#050142; stroke:none;" d="M181 978L181 982C181.71 980.241 181.71 979.759 181 978z"/>
<path style="fill:#050135; stroke:none;" d="M381 979L381 982C381.696 980.446 381.696 980.554 381 979z"/>
<path style="fill:#050137; stroke:none;" d="M413 979C416.432 980.44 420.3 980 424 980C420.568 978.56 416.7 979 413 979M394 981C396.89 982.213 399.874 981.998 403 982C400.11 980.787 397.126 981.002 394 981z"/>
<path style="fill:#010142; stroke:none;" d="M383.667 983.333C383.222 983.778 384.278 983.722 384.333 983.667C384.778 983.222 383.722 983.278 383.667 983.333z"/>
<path style="fill:#050135; stroke:none;" d="M319 988L319 993C319.83 990.969 319.83 990.031 319 988M317 997L317 1000C317.696 998.446 317.696 998.554 317 997z"/>
<path style="fill:#050137; stroke:none;" d="M317 1005L317 1009C317.71 1007.24 317.71 1006.76 317 1005z"/>
<path style="fill:#030139; stroke:none;" d="M203.333 1007.67C203.278 1007.72 203.222 1008.78 203.667 1008.33C203.722 1008.28 203.778 1007.22 203.333 1007.67z"/>
<path style="fill:#050135; stroke:none;" d="M319 1013L319 1017C319.71 1015.24 319.71 1014.76 319 1013z"/>
<path style="fill:#05013a; stroke:none;" d="M372 1019C374.052 1019.87 375.747 1019.95 378 1020C375.948 1019.13 374.253 1019.05 372 1019z"/>
<path style="fill:#050135; stroke:none;" d="M321 1021L321 1026C321.83 1023.97 321.83 1023.03 321 1021z"/>
<path style="fill:#050137; stroke:none;" d="M360 1021C362.052 1021.87 363.747 1021.95 366 1022C363.948 1021.13 362.253 1021.05 360 1021z"/>
<path style="fill:#050142; stroke:none;" d="M431.667 1027.33C431.222 1027.78 432.278 1027.72 432.333 1027.67C432.778 1027.22 431.722 1027.28 431.667 1027.33z"/>
<path style="fill:#050137; stroke:none;" d="M323 1030L323 1034C323.71 1032.24 323.71 1031.76 323 1030z"/>
<path style="fill:#050135; stroke:none;" d="M357 1030L357 1036C357.951 1033.71 357.951 1032.29 357 1030M325 1038L325 1042C325.71 1040.24 325.71 1039.76 325 1038M327 1046L327 1050C327.71 1048.24 327.71 1047.76 327 1046z"/>
<path style="fill:#050142; stroke:none;" d="M495 1053L495 1056C495.696 1054.45 495.696 1054.55 495 1053z"/>
<path style="fill:#030135; stroke:none;" d="M359.333 1066.67C359.277 1066.72 359.223 1067.78 359.667 1067.33C359.722 1067.28 359.778 1066.22 359.333 1066.67z"/>
<path style="fill:#0b016d; stroke:none;" d="M346 1096C353.538 1096.06 362.142 1097.75 364.525 1106.17C366.699 1113.85 365 1124.05 365 1132L365 1185L365 1208C365 1212.09 365.656 1216.86 364.525 1220.83C362.251 1228.81 353.148 1230.69 346 1231L346 1238L439 1238L463 1238C465.673 1238 470.007 1238.76 472.262 1236.97C475.066 1234.75 475.101 1228.26 475.996 1225C479.365 1212.73 480.433 1199.5 483 1187L474 1187C473.376 1191.11 470.88 1194.26 469.143 1198C461.065 1215.41 448.081 1226.43 429 1229.41C422.154 1230.48 405.727 1232.45 403 1224C400.359 1220.51 401 1216.25 401 1212L401 1189L401 1128C401 1119.69 399.085 1108.69 404.299 1101.5C408.459 1095.77 416.68 1096 423 1096C422.88 1085.88 415.057 1088 407 1088L362 1088C353.943 1088 346.12 1085.88 346 1096z"/>
<path style="fill:#039501; stroke:none;" d="M824 1088C822.982 1100.46 821.994 1112.39 822 1125C822.002 1128.97 822.041 1137.38 828.683 1134.24C831.368 1132.97 830.901 1129.44 831.455 1127C832.473 1122.53 834.237 1117.94 836.584 1114C844.343 1100.99 858.664 1097.04 873 1097L873 1197C873 1204.9 872.235 1210.64 870.28 1218.09C869.307 1221.8 869.136 1225.51 865.736 1227.99C861.613 1231 854.893 1230.96 850 1231L850 1238L929 1238L929 1231C923.723 1230.99 917.465 1230.94 913.109 1227.49C909.54 1224.66 909.56 1221.1 908.451 1217.09C906.593 1210.37 906 1205.08 906 1198L906 1097C920.502 1098.63 933.343 1100.17 942.201 1113.57C945.021 1117.84 946.273 1123.27 947.549 1128.17C948.111 1130.32 947.959 1133.15 950.313 1134.24C956.396 1137.06 955.998 1128.39 956 1125C956.005 1113.13 958.465 1099.4 955 1088C946.376 1090.05 936.826 1089 928 1089L880 1089L845 1089C838.03 1089 830.817 1089.62 824 1088z"/>
<path style="fill:#01d501; stroke:none;" d="M825 1088C828.959 1089.66 833.74 1089 838 1089L864 1089L954 1089C950.041 1087.34 945.26 1088 941 1088L915 1088L825 1088z"/>
<path style="fill:#039501; stroke:none;" d="M1075 1088C1074.28 1090.42 1074.05 1092.47 1074 1095C1088.42 1098.47 1087 1112.02 1087 1124L1087 1187C1087 1196.95 1088.47 1208.2 1086.74 1218C1086.11 1221.56 1084.26 1226.05 1081.61 1228.57C1077.45 1232.5 1074.22 1231.31 1074 1238L1129 1238C1128.77 1231.15 1124.73 1232.29 1120.77 1227.94C1118.44 1225.39 1118.06 1222.31 1118 1219C1117.5 1189.35 1118 1159.65 1118 1130C1118 1117 1120.69 1100.47 1117 1088C1104.61 1090.3 1087.29 1090.93 1075 1088z"/>
<path style="fill:#01d501; stroke:none;" d="M1076 1088C1079.96 1089.66 1084.74 1089 1089 1089L1115 1089C1111.04 1087.34 1106.26 1088 1102 1088L1076 1088z"/>
<path style="fill:#050137; stroke:none;" d="M345 1089L345 1096C346.059 1093.47 346.059 1091.53 345 1089z"/>
<path style="fill:#050135; stroke:none;" d="M423 1089L423 1096C424.059 1093.47 424.059 1091.53 423 1089z"/>
<path style="fill:#014b01; stroke:none;" d="M823 1089L823 1093C823.71 1091.24 823.71 1090.76 823 1089z"/>
<path style="fill:#011201; stroke:none;" d="M1118 1089L1118 1191L1118 1216C1118 1219.52 1117.21 1223.57 1120 1226C1117.38 1214.99 1119 1202.28 1119 1191L1119 1125L1119 1102C1119 1097.74 1119.66 1092.96 1118 1089z"/>
<path style="fill:#015601; stroke:none;" d="M1075.67 1095.33C1075.22 1095.78 1076.28 1095.72 1076.33 1095.67C1076.78 1095.22 1075.72 1095.28 1075.67 1095.33z"/>
<path style="fill:#030139; stroke:none;" d="M354 1097C355.506 1097.68 356.315 1097.83 358 1098C356.494 1097.32 355.685 1097.17 354 1097z"/>
<path style="fill:#050137; stroke:none;" d="M408 1097C409.506 1097.68 410.315 1097.83 412 1098C410.494 1097.32 409.685 1097.17 408 1097z"/>
<path style="fill:#014b01; stroke:none;" d="M864 1097C866.331 1097.98 868.457 1097.98 871 1098L871 1215C872.661 1211.04 872 1206.26 872 1202L872 1179L872 1097L864 1097z"/>
<path style="fill:#03a401; stroke:none;" d="M872 1097L872 1215C875.407 1206.88 873 1193.8 873 1185L873 1124C873 1115.99 875.105 1104.4 872 1097M906 1097L906 1214C909.105 1206.6 907 1195.01 907 1187L907 1127C907 1118.2 909.407 1105.12 906 1097z"/>
<path style="fill:#014b01; stroke:none;" d="M908 1097C910.331 1097.98 912.457 1097.98 915 1098C912.668 1097.02 910.543 1097.02 908 1097z"/>
<path style="fill:#014f01; stroke:none;" d="M1080.67 1097.33C1080.22 1097.78 1081.28 1097.72 1081.33 1097.67C1081.78 1097.22 1080.72 1097.28 1080.67 1097.33z"/>
<path style="fill:#014b01; stroke:none;" d="M907 1098L907 1214C910.105 1206.6 908 1195.01 908 1187L908 1128C908 1119.2 910.407 1106.12 907 1098z"/>
<path style="fill:#039501; stroke:none;" d="M1391 1098C1386.14 1109.5 1375.47 1119.93 1366.88 1128.8C1361.18 1134.7 1355.1 1138.2 1355 1147C1357.92 1147 1362.12 1146.32 1364.68 1148.03C1369.4 1151.18 1367 1164.98 1367 1170L1367 1210C1366.99 1218.01 1366.38 1226.33 1371.79 1232.99C1376.88 1239.27 1383.47 1239.86 1391 1240.01C1396.21 1240.12 1400.98 1240.44 1405.96 1238.44C1415.13 1234.75 1422.89 1223.3 1425 1214C1422.58 1213.57 1420 1212.84 1417.78 1214.33C1413.42 1217.27 1410.77 1225.74 1404.04 1223.24C1397.08 1220.65 1398 1209.92 1398 1204L1398 1147L1419 1147L1419 1137L1398 1137L1398 1098L1391 1098z"/>
<path style="fill:#011201; stroke:none;" d="M1398 1098L1398 1136C1401.1 1128.6 1399 1117.01 1399 1109C1399 1105.3 1399.44 1101.43 1398 1098z"/>
<path style="fill:#014b01; stroke:none;" d="M854 1099C855.506 1099.68 856.315 1099.83 858 1100C856.494 1099.32 855.685 1099.17 854 1099M921 1099C922.506 1099.68 923.315 1099.83 925 1100C923.494 1099.32 922.685 1099.17 921 1099z"/>
<path style="fill:#030137; stroke:none;" d="M311 1101C312.248 1101.68 312.548 1101.75 314 1102C312.751 1101.32 312.452 1101.25 311 1101z"/>
<path style="fill:#014001; stroke:none;" d="M849.667 1101.33C849.222 1101.78 850.278 1101.72 850.333 1101.67C850.777 1101.22 849.722 1101.28 849.667 1101.33z"/>
<path style="fill:#014b01; stroke:none;" d="M928.667 1101.33C928.222 1101.78 929.278 1101.72 929.333 1101.67C929.778 1101.22 928.722 1101.28 928.667 1101.33z"/>
<path style="fill:#018b01; stroke:none;" d="M956 1101L956 1134C957.328 1130.83 957 1127.42 957 1124C957 1117.05 958.701 1107.44 956 1101z"/>
<path style="fill:#050135; stroke:none;" d="M269.333 1102.67C269.278 1102.72 269.222 1103.78 269.667 1103.33C269.722 1103.28 269.778 1102.22 269.333 1102.67z"/>
<path style="fill:#016b01; stroke:none;" d="M847.667 1102.33C847.222 1102.78 848.278 1102.72 848.333 1102.67C848.778 1102.22 847.722 1102.28 847.667 1102.33z"/>
<path style="fill:#070160; stroke:none;" d="M364 1104L364 1223C367.507 1214.64 365 1201.06 365 1192L365 1131C365 1122.99 367.105 1111.4 364 1104z"/>
<path style="fill:#014f01; stroke:none;" d="M1085 1104L1086 1105L1085 1104z"/>
<path style="fill:#018401; stroke:none;" d="M1086 1105L1086 1221C1089.41 1212.88 1087 1199.8 1087 1191L1087 1132C1087 1123.99 1089.1 1112.4 1086 1105z"/>
<path style="fill:#030139; stroke:none;" d="M401 1106L401 1194L401 1215C401.001 1218.32 400.396 1221.72 403 1224C400.662 1214.18 402 1203.06 402 1193L402 1137C402 1127.94 404.507 1114.36 401 1106z"/>
<path style="fill:#013101; stroke:none;" d="M840.667 1107.33C840.222 1107.78 841.278 1107.72 841.333 1107.67C841.778 1107.22 840.722 1107.28 840.667 1107.33z"/>
<path style="fill:#014401; stroke:none;" d="M943.333 1114.67C943.278 1114.72 943.222 1115.78 943.667 1115.33C943.723 1115.28 943.778 1114.22 943.333 1114.67z"/>
<path style="fill:#013b01; stroke:none;" d="M833.333 1119.67C833.278 1119.72 833.222 1120.78 833.667 1120.33C833.723 1120.28 833.778 1119.22 833.333 1119.67z"/>
<path style="fill:#014d01; stroke:none;" d="M945.333 1119.67C945.278 1119.72 945.222 1120.78 945.667 1120.33C945.723 1120.28 945.778 1119.22 945.333 1119.67z"/>
<path style="fill:#050137; stroke:none;" d="M277 1121C279.331 1121.98 281.457 1121.98 284 1122C281.669 1121.02 279.543 1121.02 277 1121z"/>
<path style="fill:#014b01; stroke:none;" d="M1372 1123L1373 1124L1372 1123z"/>
<path style="fill:#014d01; stroke:none;" d="M1371 1124L1372 1125L1371 1124z"/>
<path style="fill:#014b01; stroke:none;" d="M831 1125L831 1129C831.71 1127.24 831.71 1126.76 831 1125z"/>
<path style="fill:#014f01; stroke:none;" d="M1370 1125L1371 1126L1370 1125z"/>
<path style="fill:#014b01; stroke:none;" d="M947 1126L947 1130C947.71 1128.24 947.71 1127.76 947 1126z"/>
<path style="fill:#014f01; stroke:none;" d="M1366 1129L1367 1130L1366 1129z"/>
<path style="fill:#014d01; stroke:none;" d="M1364 1131L1365 1132L1364 1131M1363 1132L1364 1133L1363 1132z"/>
<path style="fill:#0b016d; stroke:none;" d="M525 1184L580 1184C579.994 1175.28 579.472 1165.65 575.897 1157.58C565.343 1133.74 534.028 1124.67 512.576 1141.1C499.086 1151.44 493.168 1168.58 492.054 1185C491.737 1189.67 492.995 1193.5 493.741 1198C494.621 1203.32 494.897 1208.31 497.049 1213.39C505.775 1233.97 524.383 1243 546 1240.83C558.185 1239.61 567.449 1232.03 574.946 1222.88C576.837 1220.58 581.41 1216.52 580.267 1213.14C579.24 1210.1 575.627 1210.28 573.424 1211.76C564.326 1217.88 557.107 1227.94 544.439 1222.95C527.165 1216.13 529.495 1198.4 525 1184z"/>
<path style="fill:#030135; stroke:none;" d="M627.667 1133.33C627.222 1133.78 628.278 1133.72 628.333 1133.67C628.778 1133.22 627.722 1133.28 627.667 1133.33z"/>
<path style="fill:#0b016d; stroke:none;" d="M646 1146C646.408 1149.08 647.728 1151.9 647.946 1155.01C648.439 1162.06 647.348 1169.06 649 1176C630.994 1179.73 604.332 1186.74 593.714 1203.04C584.819 1216.69 591.568 1238.62 609 1240.81C618.573 1242.02 628.548 1240.55 636.985 1235.82C641.579 1233.24 645.433 1229.62 650 1227C651.572 1242.25 669.279 1244.05 680.829 1238.33C687.371 1235.09 693.101 1230.51 690 1223L687 1223C685.012 1225.06 683.843 1225.58 681 1226L681 1183C681 1172.94 681.792 1163.03 678.276 1153.44C670.459 1132.11 639.47 1131.07 621 1134.62C615.904 1135.6 610.458 1137.47 606.089 1140.31C594.777 1147.68 585.943 1172.69 605.17 1176.73C615.783 1178.96 625.879 1171.2 623.657 1160C622.843 1155.9 617.468 1151.25 619.737 1147.05C625.153 1137.05 638.649 1143.91 646 1146z"/>
<path style="fill:#01013e; stroke:none;" d="M643 1133C644.248 1133.68 644.548 1133.75 646 1134C644.751 1133.31 644.452 1133.25 643 1133z"/>
<path style="fill:#0b016d; stroke:none;" d="M743 1147C742.009 1143.65 742.002 1140.49 742 1137L699 1137L699 1143C714.224 1144.65 711 1160.72 711 1172L711 1234C711 1244.43 712.162 1255.62 710.87 1265.96C709.756 1274.89 698.654 1273.61 698 1282L759 1282L759 1277C735.626 1276.5 742 1245.11 742 1229C746.916 1233.81 752.237 1238.29 759 1240.21C776.916 1245.3 794.913 1233.28 803.153 1218C813.927 1198.02 813.129 1167.84 799.911 1149.29C787.399 1131.73 754.744 1124.36 743 1147z"/>
<path style="fill:#039501; stroke:none;" d="M1027 1227C1027.9 1230.87 1028.94 1234.91 1032.13 1237.57C1037.03 1241.65 1050.12 1241.07 1056 1239.36C1060.3 1238.11 1068.18 1232.87 1069.12 1228.16C1069.54 1226.08 1067.85 1223.78 1067 1222L1065 1222C1061.38 1227.85 1057.46 1223.34 1057.05 1218C1055.96 1203.51 1057 1188.54 1057 1174C1057 1166.95 1058.22 1158.73 1055.18 1152.17C1045.61 1131.57 1015.86 1131.07 997 1135C989.138 1136.64 980.91 1140.42 976.014 1147.09C968.406 1157.45 970.3 1176.63 985.996 1176.98C993.96 1177.15 1003.88 1169.92 1001.78 1161C1000.83 1156.98 995.808 1152.14 996.692 1148.02C998.583 1139.2 1014.95 1141.13 1019.94 1145.3C1026.45 1150.74 1026 1158.33 1026 1166C1026 1168.66 1026.53 1172.24 1024.97 1174.58C1022.1 1178.9 1011.71 1180.1 1007 1181.67C994.298 1185.9 979.388 1190.58 971.554 1202.42C963.616 1214.43 967.527 1237.61 984 1239.81C992.79 1240.99 1003.95 1241.01 1012 1237.1C1017.44 1234.46 1021.88 1230.17 1027 1227M1227 1212C1216.61 1208.34 1210.62 1220.9 1200.83 1223.53C1188.26 1226.9 1177.27 1216.07 1173.52 1205C1171.21 1198.16 1171.3 1191.02 1170 1184L1225 1184C1224.99 1171.81 1222.84 1157.93 1215.29 1148C1201.82 1130.27 1173.19 1127.91 1156.05 1142.02C1143.21 1152.59 1138.18 1169.14 1137.05 1185.04C1136.74 1189.47 1138 1192.87 1138.74 1197.09C1139.38 1200.72 1139.01 1204.37 1139.9 1208C1142.59 1218.96 1150.31 1229.77 1160 1235.52C1166.84 1239.59 1173.27 1240 1181 1240C1186.22 1240 1191.87 1240.59 1197 1239.48C1206.27 1237.47 1213.84 1230.17 1219.66 1223.08C1222.5 1219.61 1225.77 1216.36 1227 1212M1277 1151C1275.89 1146.34 1276 1141.76 1276 1137L1235 1137L1235 1143C1242.59 1143.83 1245.72 1149.71 1245.98 1157C1246.66 1175.61 1246 1194.37 1246 1213C1246 1221.98 1244.39 1230.06 1234 1231L1234 1238L1288 1238L1288 1231C1276.61 1229.96 1277 1220.16 1277 1211L1277 1177C1277 1172.27 1275.81 1165.62 1277.6 1161.17C1279.89 1155.48 1288.8 1149.22 1295 1149.33C1302.59 1149.46 1305.45 1157.73 1305.91 1164C1307.17 1181.14 1306.03 1198.81 1306 1216C1305.99 1223.45 1304.43 1230.05 1296 1231L1296 1238L1348 1238L1348 1231C1335.87 1230.33 1338 1218.09 1338 1209L1338 1173C1338 1164.79 1338.51 1156.56 1334.72 1149C1322.65 1124.92 1288.98 1130.4 1277 1151z"/>
<path style="fill:#014b01; stroke:none;" d="M1362 1133L1363 1134L1362 1133M1361 1134L1362 1135L1361 1134z"/>
<path style="fill:#014d01; stroke:none;" d="M1294 1135L1295 1136L1294 1135z"/>
<path style="fill:#014f01; stroke:none;" d="M1320 1135L1321 1136L1320 1135z"/>
<path style="fill:#070160; stroke:none;" d="M698 1136L698 1142C698.779 1140.23 698.912 1138.96 699 1137L742 1137C737.531 1135.12 731.809 1136 727 1136L698 1136z"/>
<path style="fill:#018101; stroke:none;" d="M1234 1136L1234 1143C1234.87 1140.95 1234.95 1139.25 1235 1137L1276 1137C1276 1141.73 1275.65 1146.44 1277 1151C1278.09 1146.47 1277 1140.76 1277 1136L1234 1136M1398 1136C1403.96 1138.5 1412.56 1137 1419 1137C1413.04 1134.5 1404.44 1136 1398 1136z"/>
<path style="fill:#014d01; stroke:none;" d="M1419 1136L1419 1147C1420.43 1143.59 1420.43 1139.41 1419 1136z"/>
<path style="fill:#012b01; stroke:none;" d="M985.667 1138.33C985.222 1138.78 986.278 1138.72 986.333 1138.67C986.777 1138.22 985.722 1138.28 985.667 1138.33z"/>
<path style="fill:#014b01; stroke:none;" d="M1206 1139L1207 1140L1206 1139z"/>
<path style="fill:#014f01; stroke:none;" d="M1355 1139L1356 1140L1355 1139z"/>
<path style="fill:#030135; stroke:none;" d="M538 1141C539.248 1141.68 539.549 1141.75 541 1142C539.752 1141.32 539.452 1141.25 538 1141z"/>
<path style="fill:#014f01; stroke:none;" d="M1182 1141C1183.25 1141.69 1183.55 1141.75 1185 1142C1183.75 1141.32 1183.45 1141.25 1182 1141z"/>
<path style="fill:#014b01; stroke:none;" d="M1284 1141L1285 1142L1284 1141z"/>
<path style="fill:#010101; stroke:none;" d="M524 1175C533.285 1173.28 543.715 1173.28 553 1175C552.661 1171.59 551.42 1168.4 551.104 1165C550.479 1158.28 552.26 1150.2 547.161 1144.65C542.996 1140.13 533.082 1141.07 529.895 1146.19C526.471 1151.69 526.595 1158.83 525.872 1165C525.472 1168.42 524.22 1171.54 524 1175z"/>
<path style="fill:#014d01; stroke:none;" d="M1047 1142L1048 1143L1047 1142z"/>
<path style="fill:#010101; stroke:none;" d="M1170 1174C1178.83 1174 1188.37 1172.95 1197 1175C1196.84 1167.02 1197.77 1152.38 1192.72 1145.76C1188.6 1140.36 1178.11 1140.52 1174.37 1146.19C1169.38 1153.74 1170 1165.37 1170 1174z"/>
<path style="fill:#014b01; stroke:none;" d="M1283 1142L1284 1143L1283 1142z"/>
<path style="fill:#050145; stroke:none;" d="M601.667 1143.33C601.222 1143.78 602.278 1143.72 602.333 1143.67C602.778 1143.22 601.722 1143.28 601.667 1143.33z"/>
<path style="fill:#05013a; stroke:none;" d="M622 1143C623.248 1143.68 623.548 1143.75 625 1144C623.752 1143.32 623.452 1143.25 622 1143z"/>
<path style="fill:#01013e; stroke:none;" d="M639 1143C640.248 1143.68 640.548 1143.75 642 1144C640.752 1143.32 640.452 1143.25 639 1143z"/>
<path style="fill:#05013e; stroke:none;" d="M699 1143C700.769 1143.78 702.036 1143.91 704 1144C702.231 1143.22 700.964 1143.09 699 1143z"/>
<path style="fill:#015301; stroke:none;" d="M999 1143C1000.25 1143.68 1000.55 1143.75 1002 1144C1000.75 1143.32 1000.45 1143.25 999 1143z"/>
<path style="fill:#016b01; stroke:none;" d="M1016 1143C1017.25 1143.68 1017.55 1143.75 1019 1144C1017.75 1143.32 1017.45 1143.25 1016 1143z"/>
<path style="fill:#014b01; stroke:none;" d="M1048 1143L1049 1144L1048 1143z"/>
<path style="fill:#014d01; stroke:none;" d="M1190 1143L1191 1144L1190 1143z"/>
<path style="fill:#015601; stroke:none;" d="M1235 1143C1236.77 1143.78 1238.04 1143.91 1240 1144C1238.23 1143.22 1236.96 1143.09 1235 1143z"/>
<path style="fill:#014b01; stroke:none;" d="M1282 1143L1283 1144L1282 1143M1049 1144L1050 1145L1049 1144M1241 1144L1242 1145L1241 1144M1281 1144L1282 1145L1281 1144M1050 1145L1051 1146L1050 1145M1192 1145L1193 1146L1192 1145z"/>
<path style="fill:#014f01; stroke:none;" d="M1280 1145L1281 1146L1280 1145M1051 1146L1052 1147L1051 1146z"/>
<path style="fill:#017001; stroke:none;" d="M1151.33 1146.67C1151.28 1146.72 1151.22 1147.78 1151.67 1147.33C1151.72 1147.28 1151.78 1146.22 1151.33 1146.67z"/>
<path style="fill:#014f01; stroke:none;" d="M1243 1146L1244 1147L1243 1146z"/>
<path style="fill:#050135; stroke:none;" d="M549 1147L549 1150C549.696 1148.45 549.696 1148.55 549 1147z"/>
<path style="fill:#050137; stroke:none;" d="M756 1147C758.613 1148.1 761.164 1147.99 764 1148C761.387 1146.9 758.835 1147.01 756 1147z"/>
<path style="fill:#014b01; stroke:none;" d="M1355 1147C1358.43 1148.44 1362.3 1148 1366 1148C1362.57 1146.56 1358.7 1147 1355 1147M1398 1147C1403.96 1149.5 1412.56 1148 1419 1148C1413.04 1145.5 1404.44 1147 1398 1147z"/>
<path style="fill:#010101; stroke:none;" d="M754 1148.74C749.474 1150.45 744.381 1155.43 742.728 1160C741.01 1164.75 742 1171.02 742 1176L742 1202C742 1206.56 741.423 1211.58 742.916 1215.96C745.683 1224.07 755.34 1229.44 763.575 1226.23C770.153 1223.67 772.405 1216.31 773.714 1210C776.756 1195.35 776.485 1176.56 773.113 1162C770.907 1152.48 764.881 1144.63 754 1148.74z"/>
<path style="fill:#014d01; stroke:none;" d="M995.333 1148.67C995.278 1148.72 995.222 1149.78 995.667 1149.33C995.723 1149.28 995.778 1148.22 995.333 1148.67z"/>
<path style="fill:#014f01; stroke:none;" d="M1215 1148L1216 1149L1215 1148z"/>
<path style="fill:#018101; stroke:none;" d="M1366 1148L1366 1219C1368.29 1213.54 1367 1205.89 1367 1200L1367 1165C1367 1159.65 1368.09 1152.97 1366 1148z"/>
<path style="fill:#011201; stroke:none;" d="M1398 1148L1398 1215C1399.98 1210.28 1399 1204.08 1399 1199L1399 1166C1399 1160.38 1400.19 1153.22 1398 1148z"/>
<path style="fill:#070160; stroke:none;" d="M710 1149L710 1270C713.206 1262.36 711 1250.27 711 1242L711 1180C711 1170.94 713.507 1157.36 710 1149z"/>
<path style="fill:#014b01; stroke:none;" d="M1292 1149C1294.33 1149.98 1296.46 1149.98 1299 1150C1296.67 1149.02 1294.54 1149.02 1292 1149z"/>
<path style="fill:#050137; stroke:none;" d="M527 1150L527 1153C527.696 1151.45 527.696 1151.55 527 1150M647 1150L647 1153C647.696 1151.45 647.696 1151.55 647 1150z"/>
<path style="fill:#014701; stroke:none;" d="M1195 1150L1195 1155C1195.83 1152.97 1195.83 1152.03 1195 1150z"/>
<path style="fill:#02012a; stroke:none;" d="M572 1151C572.545 1152.64 572.365 1152.45 574 1153L574 1151L572 1151z"/>
<path style="fill:#05013e; stroke:none;" d="M677.333 1151.67C677.278 1151.72 677.222 1152.78 677.667 1152.33C677.723 1152.28 677.778 1151.22 677.333 1151.67z"/>
<path style="fill:#015601; stroke:none;" d="M973.333 1151.67C973.278 1151.72 973.222 1152.78 973.667 1152.33C973.723 1152.28 973.778 1151.22 973.333 1151.67z"/>
<path style="fill:#014f01; stroke:none;" d="M1147 1151L1148 1152L1147 1151z"/>
<path style="fill:#014b01; stroke:none;" d="M1245 1151L1245 1224C1247.19 1218.78 1246 1211.62 1246 1206L1246 1170C1246 1164.11 1247.29 1156.46 1245 1151z"/>
<path style="fill:#014001; stroke:none;" d="M1287.67 1151.33C1287.22 1151.78 1288.28 1151.72 1288.33 1151.67C1288.78 1151.22 1287.72 1151.28 1287.67 1151.33z"/>
<path style="fill:#030137; stroke:none;" d="M595 1152L595 1155C595.696 1153.45 595.696 1153.55 595 1152z"/>
<path style="fill:#05013a; stroke:none;" d="M802.333 1152.67C802.278 1152.72 802.222 1153.78 802.667 1153.33C802.723 1153.28 802.778 1152.22 802.333 1152.67z"/>
<path style="fill:#014f01; stroke:none;" d="M997 1152L998 1153L997 1152z"/>
<path style="fill:#014d01; stroke:none;" d="M1025 1152C1025 1159.9 1025.84 1168.27 1024 1176C1028.04 1172.47 1027 1156.77 1025 1152M1055.33 1152.67C1055.28 1152.72 1055.22 1153.78 1055.67 1153.33C1055.72 1153.28 1055.78 1152.22 1055.33 1152.67z"/>
<path style="fill:#014b01; stroke:none;" d="M1171 1153L1171 1158C1171.83 1155.97 1171.83 1155.03 1171 1153z"/>
<path style="fill:#014001; stroke:none;" d="M1218.67 1153.33C1218.22 1153.78 1219.28 1153.72 1219.33 1153.67C1219.78 1153.22 1218.72 1153.28 1218.67 1153.33z"/>
<path style="fill:#014f01; stroke:none;" d="M1283 1153L1283 1155C1284.64 1154.45 1284.45 1154.64 1285 1153L1283 1153z"/>
<path style="fill:#014b01; stroke:none;" d="M1303 1153L1303 1156C1303.7 1154.45 1303.7 1154.55 1303 1153z"/>
<path style="fill:#030135; stroke:none;" d="M771.333 1154.67C771.278 1154.72 771.222 1155.78 771.667 1155.33C771.723 1155.28 771.777 1154.22 771.333 1154.67M803.333 1154.67C803.278 1154.72 803.222 1155.78 803.667 1155.33C803.723 1155.28 803.777 1154.22 803.333 1154.67z"/>
<path style="fill:#017001; stroke:none;" d="M1145.33 1154.67C1145.28 1154.72 1145.22 1155.78 1145.67 1155.33C1145.72 1155.28 1145.78 1154.22 1145.33 1154.67z"/>
<path style="fill:#050137; stroke:none;" d="M551 1155L551 1169C552.667 1165.03 552.667 1158.97 551 1155z"/>
<path style="fill:#05013a; stroke:none;" d="M575 1155L575 1158C575.696 1156.45 575.696 1156.55 575 1155z"/>
<path style="fill:#050137; stroke:none;" d="M499.333 1156.67C499.278 1156.72 499.223 1157.78 499.667 1157.33C499.722 1157.28 499.778 1156.22 499.333 1156.67z"/>
<path style="fill:#05013a; stroke:none;" d="M623 1156L623 1159C623.696 1157.45 623.696 1157.55 623 1156z"/>
<path style="fill:#050135; stroke:none;" d="M679 1156L679 1160C679.71 1158.24 679.71 1157.76 679 1156z"/>
<path style="fill:#014b01; stroke:none;" d="M971 1156L971 1167C972.431 1163.59 972.431 1159.41 971 1156z"/>
<path style="fill:#030137; stroke:none;" d="M525 1158L525 1169C526.431 1165.59 526.431 1161.41 525 1158z"/>
<path style="fill:#014b01; stroke:none;" d="M1001 1158L1001 1161C1001.7 1159.45 1001.7 1159.55 1001 1158M1057 1158L1057 1223C1059.09 1218.03 1058 1211.35 1058 1206L1058 1174C1058 1168.92 1058.98 1162.72 1057 1158z"/>
<path style="fill:#017001; stroke:none;" d="M1143.33 1158.67C1143.28 1158.72 1143.22 1159.78 1143.67 1159.33C1143.72 1159.28 1143.78 1158.22 1143.33 1158.67z"/>
<path style="fill:#014d01; stroke:none;" d="M1221 1158L1221 1161C1221.7 1159.45 1221.7 1159.55 1221 1158z"/>
<path style="fill:#011201; stroke:none;" d="M1338 1158L1338 1226C1340.19 1220.78 1339 1213.62 1339 1208L1339 1174C1339 1168.92 1339.98 1162.72 1338 1158z"/>
<path style="fill:#05013e; stroke:none;" d="M805.333 1159.67C805.278 1159.72 805.222 1160.78 805.667 1160.33C805.723 1160.28 805.778 1159.22 805.333 1159.67z"/>
<path style="fill:#014b01; stroke:none;" d="M1277 1159L1277 1225C1279.19 1219.78 1278 1212.62 1278 1207L1278 1175C1278 1169.92 1278.98 1163.72 1277 1159z"/>
<path style="fill:#050137; stroke:none;" d="M497.333 1160.67C497.278 1160.72 497.222 1161.78 497.667 1161.33C497.722 1161.28 497.778 1160.22 497.333 1160.67z"/>
<path style="fill:#030135; stroke:none;" d="M773 1160L773 1164C773.71 1162.24 773.71 1161.76 773 1160z"/>
<path style="fill:#014b01; stroke:none;" d="M1305 1160L1305 1225C1307.09 1220.03 1306 1213.35 1306 1208L1306 1176C1306 1170.92 1306.98 1164.72 1305 1160z"/>
<path style="fill:#050137; stroke:none;" d="M577 1161L577 1164C577.696 1162.45 577.696 1162.55 577 1161M807 1164L807 1168C807.71 1166.24 807.71 1165.76 807 1164z"/>
<path style="fill:#014b01; stroke:none;" d="M1001 1165L1001 1168C1001.7 1166.45 1001.7 1166.55 1001 1165M1223 1165L1223 1169C1223.71 1167.24 1223.71 1166.76 1223 1165z"/>
<path style="fill:#050135; stroke:none;" d="M495 1166L495 1169C495.696 1167.45 495.696 1167.55 495 1166z"/>
<path style="fill:#05013a; stroke:none;" d="M595.333 1168.67C595.278 1168.72 595.222 1169.78 595.667 1169.33C595.722 1169.28 595.778 1168.22 595.333 1168.67z"/>
<path style="fill:#050137; stroke:none;" d="M623.333 1168.67C623.278 1168.72 623.222 1169.78 623.667 1169.33C623.722 1169.28 623.778 1168.22 623.333 1168.67z"/>
<path style="fill:#014b01; stroke:none;" d="M1000 1169L1001 1170L1000 1169z"/>
<path style="fill:#014d01; stroke:none;" d="M1169 1169L1169 1175C1169.95 1172.71 1169.95 1171.29 1169 1169z"/>
<path style="fill:#050135; stroke:none;" d="M579 1170L579 1175C579.83 1172.97 579.83 1172.03 579 1170z"/>
<path style="fill:#050137; stroke:none;" d="M775 1170L775 1205C776.441 1201.57 776 1197.7 776 1194C776 1186.78 777.802 1176.68 775 1170z"/>
<path style="fill:#014b01; stroke:none;" d="M1197 1170L1197 1175C1197.83 1172.97 1197.83 1172.03 1197 1170M974 1171L975 1172L974 1171z"/>
<path style="fill:#018101; stroke:none;" d="M1138 1173L1138 1181C1139.16 1178.23 1139.16 1175.77 1138 1173z"/>
<path style="fill:#050137; stroke:none;" d="M493 1174L493 1180C493.951 1177.71 493.951 1176.29 493 1174z"/>
<path style="fill:#05013e; stroke:none;" d="M648 1174L647 1176L649 1176C649 1174.15 649.3 1174.65 648 1174z"/>
<path style="fill:#014d01; stroke:none;" d="M977 1174L978 1175L977 1174z"/>
<path style="fill:#018401; stroke:none;" d="M1170 1174C1177.17 1177.01 1188.24 1175 1196 1175C1188.83 1171.99 1177.76 1174 1170 1174z"/>
<path style="fill:#070160; stroke:none;" d="M580 1175L580 1184L538 1184C533.911 1184 526.04 1182.15 525 1187C530.633 1183.87 537.735 1185 544 1185L581 1185C581 1181.59 581.327 1178.16 580 1175z"/>
<path style="fill:#05013e; stroke:none;" d="M601.667 1175.33C601.222 1175.78 602.278 1175.72 602.333 1175.67C602.778 1175.22 601.722 1175.28 601.667 1175.33z"/>
<path style="fill:#050137; stroke:none;" d="M615 1175C616.248 1175.68 616.548 1175.75 618 1176C616.751 1175.32 616.452 1175.25 615 1175z"/>
<path style="fill:#014f01; stroke:none;" d="M978.667 1175.33C978.222 1175.78 979.278 1175.72 979.333 1175.67C979.778 1175.22 978.722 1175.28 978.667 1175.33z"/>
<path style="fill:#014d01; stroke:none;" d="M992 1175C993.248 1175.68 993.548 1175.75 995 1176C993.751 1175.31 993.452 1175.25 992 1175z"/>
<path style="fill:#014b01; stroke:none;" d="M1225 1175L1225 1185C1226.35 1181.79 1226.35 1178.21 1225 1175z"/>
<path style="fill:#050137; stroke:none;" d="M640 1177C641.248 1177.68 641.548 1177.75 643 1178C641.752 1177.32 641.452 1177.25 640 1177z"/>
<path style="fill:#014b01; stroke:none;" d="M1018 1177C1019.25 1177.68 1019.55 1177.75 1021 1178C1019.75 1177.32 1019.45 1177.25 1018 1177z"/>
<path style="fill:#05013a; stroke:none;" d="M634 1179C635.506 1179.68 636.315 1179.83 638 1180C636.494 1179.32 635.685 1179.17 634 1179z"/>
<path style="fill:#014d01; stroke:none;" d="M1011 1179C1012.25 1179.68 1012.55 1179.75 1014 1180C1012.75 1179.32 1012.45 1179.25 1011 1179z"/>
<path style="fill:#05013a; stroke:none;" d="M628 1181C629.248 1181.68 629.549 1181.75 631 1182C629.751 1181.32 629.452 1181.25 628 1181z"/>
<path style="fill:#014f01; stroke:none;" d="M1006.67 1181.33C1006.22 1181.78 1007.28 1181.72 1007.33 1181.67C1007.78 1181.22 1006.72 1181.28 1006.67 1181.33z"/>
<path style="fill:#018401; stroke:none;" d="M1170 1184C1175.22 1186.19 1182.38 1185 1188 1185L1225 1185C1219.78 1182.81 1212.62 1184 1207 1184L1170 1184z"/>
<path style="fill:#010101; stroke:none;" d="M647 1185C641.891 1187.28 636.504 1188.92 632.094 1192.51C625.073 1198.24 619.544 1213.09 626.92 1220.67C632.347 1226.25 644.636 1223.07 647.397 1215.96C649.257 1211.17 648 1204.08 648 1199C648 1194.46 648.769 1189.22 647 1185M1024 1185C1019.15 1187.56 1013.77 1189.1 1009.44 1192.59C1001.84 1198.73 997.033 1212.5 1004.51 1220.7C1009.85 1226.55 1021.72 1222.88 1024.4 1215.96C1026.26 1211.17 1025 1204.08 1025 1199C1025 1194.46 1025.77 1189.22 1024 1185z"/>
<path style="fill:#014f01; stroke:none;" d="M1025 1185L1025 1216C1027.5 1210.05 1026 1201.42 1026 1195C1026 1191.58 1026.33 1188.17 1025 1185z"/>
<path style="fill:#014b01; stroke:none;" d="M1171 1187L1171 1197C1172.35 1193.79 1172.35 1190.21 1171 1187z"/>
<path style="fill:#070153; stroke:none;" d="M473 1189L472 1192C473.766 1191.02 473.955 1190.78 473 1189z"/>
<path style="fill:#014d01; stroke:none;" d="M1014 1189L1015 1190L1014 1189z"/>
<path style="fill:#050137; stroke:none;" d="M481 1191L481 1196C481.83 1193.97 481.83 1193.03 481 1191z"/>
<path style="fill:#014b01; stroke:none;" d="M1008 1193L1009 1194L1008 1193M1007 1194L1008 1195L1007 1194z"/>
<path style="fill:#018101; stroke:none;" d="M1138 1194L1138 1202C1139.16 1199.23 1139.16 1196.77 1138 1194z"/>
<path style="fill:#050137; stroke:none;" d="M493 1195L493 1201C493.951 1198.71 493.951 1197.29 493 1195z"/>
<path style="fill:#014b01; stroke:none;" d="M978 1195L979 1196L978 1195M1006 1195L1007 1196L1006 1195M977 1196L978 1197L977 1196z"/>
<path style="fill:#050137; stroke:none;" d="M527 1197L527 1202C527.83 1199.97 527.83 1199.03 527 1197z"/>
<path style="fill:#050135; stroke:none;" d="M625.333 1200.67C625.278 1200.72 625.222 1201.78 625.667 1201.33C625.722 1201.28 625.778 1200.22 625.333 1200.67z"/>
<path style="fill:#014d01; stroke:none;" d="M972 1201L973 1202L972 1201z"/>
<path style="fill:#030135; stroke:none;" d="M479 1202L479 1208C479.951 1205.71 479.951 1204.29 479 1202z"/>
<path style="fill:#014b01; stroke:none;" d="M1173 1202L1173 1206C1173.71 1204.24 1173.71 1203.76 1173 1202z"/>
<path style="fill:#030135; stroke:none;" d="M807 1203L807 1207C807.71 1205.24 807.71 1204.76 807 1203z"/>
<path style="fill:#014b01; stroke:none;" d="M1001 1203L1001 1207C1001.71 1205.24 1001.71 1204.76 1001 1203z"/>
<path style="fill:#014d01; stroke:none;" d="M969 1205L969 1208C969.696 1206.45 969.696 1206.55 969 1205z"/>
<path style="fill:#050135; stroke:none;" d="M529 1206L529 1209C529.696 1207.45 529.696 1207.55 529 1206z"/>
<path style="fill:#050137; stroke:none;" d="M623 1206L623 1215C624.256 1212.01 624.256 1208.99 623 1206M495.333 1207.67C495.278 1207.72 495.222 1208.78 495.667 1208.33C495.722 1208.28 495.778 1207.22 495.333 1207.67z"/>
<path style="fill:#02012e; stroke:none;" d="M575.667 1209.33C575.222 1209.78 576.278 1209.72 576.333 1209.67C576.778 1209.22 575.722 1209.28 575.667 1209.33z"/>
<path style="fill:#015301; stroke:none;" d="M1175.33 1209.67C1175.28 1209.72 1175.22 1210.78 1175.67 1210.33C1175.72 1210.28 1175.78 1209.22 1175.33 1209.67z"/>
<path style="fill:#015601; stroke:none;" d="M1219 1211L1222 1210C1220.22 1209.04 1219.98 1209.23 1219 1211z"/>
<path style="fill:#050137; stroke:none;" d="M805 1210L805 1213C805.696 1211.45 805.696 1211.55 805 1210M773 1211L773 1214C773.696 1212.45 773.696 1212.55 773 1211z"/>
<path style="fill:#014b01; stroke:none;" d="M1218 1211L1219 1212L1218 1211z"/>
<path style="fill:#05013a; stroke:none;" d="M581 1212L581 1215C581.696 1213.45 581.696 1213.55 581 1212z"/>
<path style="fill:#014b01; stroke:none;" d="M967 1212L967 1223C968.431 1219.59 968.431 1215.41 967 1212z"/>
<path style="fill:#014d01; stroke:none;" d="M1217 1212L1218 1213L1217 1212z"/>
<path style="fill:#014401; stroke:none;" d="M1418.67 1212.33C1418.22 1212.78 1419.28 1212.72 1419.33 1212.67C1419.78 1212.22 1418.72 1212.28 1418.67 1212.33z"/>
<path style="fill:#050137; stroke:none;" d="M477 1213L477 1219C477.951 1216.71 477.951 1215.29 477 1213z"/>
<path style="fill:#02012a; stroke:none;" d="M497.333 1213.67C497.278 1213.72 497.222 1214.78 497.667 1214.33C497.722 1214.28 497.778 1213.22 497.333 1213.67z"/>
<path style="fill:#014d01; stroke:none;" d="M1001 1213C1001.17 1215.4 1001.2 1216.46 1003 1218C1002.45 1216.18 1001.92 1214.65 1001 1213z"/>
<path style="fill:#014f01; stroke:none;" d="M1216 1213L1217 1214L1216 1213z"/>
<path style="fill:#015601; stroke:none;" d="M1417.33 1213.67C1417.28 1213.72 1417.22 1214.78 1417.67 1214.33C1417.72 1214.28 1417.78 1213.22 1417.33 1213.67z"/>
<path style="fill:#014b01; stroke:none;" d="M1215 1214L1216 1215L1215 1214z"/>
<path style="fill:#014d01; stroke:none;" d="M1143 1215L1143 1218C1143.7 1216.45 1143.7 1216.55 1143 1215z"/>
<path style="fill:#014f01; stroke:none;" d="M1214 1215L1215 1216L1214 1215z"/>
<path style="fill:#014b01; stroke:none;" d="M1399 1215L1399 1220C1399.83 1217.97 1399.83 1217.03 1399 1215z"/>
<path style="fill:#014d01; stroke:none;" d="M1213 1216L1214 1217L1213 1216z"/>
<path style="fill:#050142; stroke:none;" d="M499 1217L499 1220C499.696 1218.45 499.696 1218.55 499 1217z"/>
<path style="fill:#014d01; stroke:none;" d="M1423.33 1218.67C1423.28 1218.72 1423.22 1219.78 1423.67 1219.33C1423.72 1219.28 1423.78 1218.22 1423.33 1218.67z"/>
<path style="fill:#01013e; stroke:none;" d="M501.333 1221.67C501.278 1221.72 501.222 1222.78 501.667 1222.33C501.722 1222.28 501.778 1221.22 501.333 1221.67z"/>
<path style="fill:#05013e; stroke:none;" d="M561.667 1221.33C561.222 1221.78 562.278 1221.72 562.333 1221.67C562.778 1221.22 561.722 1221.28 561.667 1221.33z"/>
<path style="fill:#010142; stroke:none;" d="M575 1221L575 1223C576.635 1222.46 576.455 1222.64 577 1221L575 1221z"/>
<path style="fill:#014b01; stroke:none;" d="M1004 1221L1005 1222L1004 1221z"/>
<path style="fill:#012b01; stroke:none;" d="M1220.67 1221.33C1220.22 1221.78 1221.28 1221.72 1221.33 1221.67C1221.78 1221.22 1220.72 1221.28 1220.67 1221.33z"/>
<path style="fill:#033501; stroke:none;" d="M1400 1221C1400.55 1222.64 1400.36 1222.45 1402 1223L1402 1221L1400 1221z"/>
<path style="fill:#030151; stroke:none;" d="M688.667 1222.33C688.222 1222.78 689.278 1222.72 689.333 1222.67C689.778 1222.22 688.722 1222.28 688.667 1222.33z"/>
<path style="fill:#014b01; stroke:none;" d="M1367 1222L1367 1225C1367.7 1223.45 1367.7 1223.55 1367 1222z"/>
<path style="fill:#05013e; stroke:none;" d="M447.667 1223.33C447.222 1223.78 448.278 1223.72 448.333 1223.67C448.778 1223.22 447.722 1223.28 447.667 1223.33z"/>
<path style="fill:#030135; stroke:none;" d="M544 1223C548.216 1224.77 553.459 1224 558 1224C553.784 1222.23 548.541 1223 544 1223z"/>
<path style="fill:#050135; stroke:none;" d="M629 1223C630.248 1223.68 630.548 1223.75 632 1224C630.752 1223.32 630.452 1223.25 629 1223z"/>
<path style="fill:#050137; stroke:none;" d="M636 1223C637.248 1223.68 637.548 1223.75 639 1224C637.752 1223.32 637.452 1223.25 636 1223z"/>
<path style="fill:#015601; stroke:none;" d="M1007 1223C1008.25 1223.68 1008.55 1223.75 1010 1224C1008.75 1223.32 1008.45 1223.25 1007 1223z"/>
<path style="fill:#014d01; stroke:none;" d="M1014.67 1223.33C1014.22 1223.78 1015.28 1223.72 1015.33 1223.67C1015.78 1223.22 1014.72 1223.28 1014.67 1223.33z"/>
<path style="fill:#014b01; stroke:none;" d="M1189 1223C1193.22 1224.77 1198.46 1224 1203 1224C1198.78 1222.23 1193.54 1223 1189 1223M1403 1223C1405.33 1223.98 1407.46 1223.98 1410 1224C1407.67 1223.02 1405.54 1223.02 1403 1223z"/>
<path style="fill:#030135; stroke:none;" d="M503 1224L503 1226L505 1226C504.455 1224.36 504.635 1224.55 503 1224z"/>
<path style="fill:#050137; stroke:none;" d="M442 1225C443.248 1225.68 443.548 1225.75 445 1226C443.752 1225.32 443.452 1225.25 442 1225M475 1225L475 1230C475.83 1227.97 475.83 1227.03 475 1225M681 1225C682.769 1225.78 684.036 1225.91 686 1226C684.231 1225.22 682.964 1225.09 681 1225M750.667 1225.33C750.222 1225.78 751.278 1225.72 751.333 1225.67C751.778 1225.22 750.722 1225.28 750.667 1225.33z"/>
<path style="fill:#030139; stroke:none;" d="M764.667 1225.33C764.222 1225.78 765.278 1225.72 765.333 1225.67C765.778 1225.22 764.722 1225.28 764.667 1225.33z"/>
<path style="fill:#014b01; stroke:none;" d="M1059 1225C1060.77 1225.78 1062.04 1225.91 1064 1226C1062.23 1225.22 1060.96 1225.09 1059 1225M1068 1225L1069 1226L1068 1225M1149.33 1225.67C1149.28 1225.72 1149.22 1226.78 1149.67 1226.33C1149.72 1226.28 1149.78 1225.22 1149.33 1225.67z"/>
<path style="fill:#014d01; stroke:none;" d="M1278 1225L1279 1226L1278 1225z"/>
<path style="fill:#030135; stroke:none;" d="M436 1227C437.248 1227.68 437.549 1227.75 439 1228C437.752 1227.32 437.452 1227.25 436 1227z"/>
<path style="fill:#050137; stroke:none;" d="M648 1227L649 1230C649.685 1228.75 649.749 1228.45 650 1227L648 1227M755 1227C757.332 1227.98 759.457 1227.98 762 1228C759.669 1227.02 757.543 1227.02 755 1227z"/>
<path style="fill:#017001; stroke:none;" d="M866.667 1227.33C866.222 1227.78 867.278 1227.72 867.333 1227.67C867.778 1227.22 866.722 1227.28 866.667 1227.33z"/>
<path style="fill:#014001; stroke:none;" d="M969.333 1227.67C969.278 1227.72 969.222 1228.78 969.667 1228.33C969.722 1228.28 969.778 1227.22 969.333 1227.67z"/>
<path style="fill:#014b01; stroke:none;" d="M865 1228L866 1229L865 1228z"/>
<path style="fill:#014f01; stroke:none;" d="M1151 1228L1152 1229L1151 1228z"/>
<path style="fill:#014701; stroke:none;" d="M1369.33 1228.67C1369.28 1228.72 1369.22 1229.78 1369.67 1229.33C1369.72 1229.28 1369.78 1228.22 1369.33 1228.67z"/>
<path style="fill:#050135; stroke:none;" d="M352 1229C353.769 1229.78 355.036 1229.91 357 1230C355.231 1229.22 353.964 1229.09 352 1229z"/>
<path style="fill:#050137; stroke:none;" d="M410 1229C415.469 1231.29 423.099 1230 429 1230C423.531 1227.71 415.901 1229 410 1229z"/>
<path style="fill:#014f01; stroke:none;" d="M859 1229C860.769 1229.78 862.036 1229.91 864 1230C862.231 1229.22 860.964 1229.09 859 1229z"/>
<path style="fill:#014b01; stroke:none;" d="M916 1229C917.506 1229.68 918.315 1229.83 920 1230C918.494 1229.32 917.685 1229.17 916 1229M1027 1229L1027 1232C1027.7 1230.45 1027.7 1230.55 1027 1229M1080.67 1229.33C1080.22 1229.78 1081.28 1229.72 1081.33 1229.67C1081.78 1229.22 1080.72 1229.28 1080.67 1229.33z"/>
<path style="fill:#014401; stroke:none;" d="M1121.67 1229.33C1121.22 1229.78 1122.28 1229.72 1122.33 1229.67C1122.78 1229.22 1121.72 1229.28 1121.67 1229.33z"/>
<path style="fill:#014b01; stroke:none;" d="M1239 1229C1240.25 1229.69 1240.55 1229.75 1242 1230C1240.75 1229.32 1240.45 1229.25 1239 1229z"/>
<path style="fill:#014d01; stroke:none;" d="M1280.67 1229.33C1280.22 1229.78 1281.28 1229.72 1281.33 1229.67C1281.78 1229.22 1280.72 1229.28 1280.67 1229.33z"/>
<path style="fill:#015601; stroke:none;" d="M1301.67 1229.33C1301.22 1229.78 1302.28 1229.72 1302.33 1229.67C1302.78 1229.22 1301.72 1229.28 1301.67 1229.33z"/>
<path style="fill:#050137; stroke:none;" d="M345 1231L345 1238C346.059 1235.47 346.059 1233.53 345 1231z"/>
<path style="fill:#014b01; stroke:none;" d="M849 1231L849 1238C850.06 1235.47 850.06 1233.53 849 1231M929 1231L929 1238C930.059 1235.47 930.06 1233.53 929 1231M1020 1231L1021 1232L1020 1231M1127.67 1231.33C1127.22 1231.78 1128.28 1231.72 1128.33 1231.67C1128.78 1231.22 1127.72 1231.28 1127.67 1231.33z"/>
<path style="fill:#014d01; stroke:none;" d="M1019 1232L1020 1233L1019 1232z"/>
<path style="fill:#014b01; stroke:none;" d="M1295 1232L1295 1238C1295.95 1235.71 1295.95 1234.29 1295 1232M1207 1234L1208 1235L1207 1234M1373 1234L1374 1235L1373 1234M1411 1234L1412 1235L1411 1234M1062 1235L1063 1236L1062 1235z"/>
<path style="fill:#014d01; stroke:none;" d="M1410 1235L1411 1236L1410 1235z"/>
<path style="fill:#050137; stroke:none;" d="M473.333 1236.67C473.278 1236.72 473.222 1237.78 473.667 1237.33C473.722 1237.28 473.778 1236.22 473.333 1236.67z"/>
<path style="fill:#01010d; stroke:none;" d="M346 1238C349.959 1239.66 354.74 1239 359 1239L385 1239L474 1239C470.041 1237.34 465.26 1238 461 1238L435 1238L346 1238z"/>
<path style="fill:#011201; stroke:none;" d="M850 1238C856.919 1240.9 867.52 1239 875 1239L930 1239C923.081 1236.1 912.48 1238 905 1238L850 1238M1075 1238C1080.22 1240.19 1087.38 1239 1093 1239L1129 1239C1123.78 1236.81 1116.62 1238 1111 1238L1075 1238M1234 1238C1239.22 1240.19 1246.38 1239 1252 1239L1288 1239C1282.78 1236.81 1275.62 1238 1270 1238L1234 1238M1296 1238C1300.97 1240.09 1307.65 1239 1313 1239L1348 1239C1343.03 1236.91 1336.35 1238 1331 1238L1296 1238z"/>
<path style="fill:#014f01; stroke:none;" d="M1402 1239L1403 1240L1402 1239z"/>
<path style="fill:#018101; stroke:none;" d="M985 1240C989.724 1241.98 995.91 1241 1001 1241C996.276 1239.02 990.09 1240 985 1240M1037 1240C1041.47 1241.88 1047.18 1241 1052 1241C1047.53 1239.12 1041.82 1240 1037 1240M1174 1240C1179.47 1242.29 1187.1 1241 1193 1241C1187.53 1238.71 1179.9 1240 1174 1240z"/>
<path style="fill:#018401; stroke:none;" d="M1386 1240C1389.43 1241.44 1393.3 1241 1397 1241C1393.57 1239.56 1389.7 1240 1386 1240z"/>
<path style="fill:#030137; stroke:none;" d="M743 1265L743 1269C743.71 1267.24 743.71 1266.76 743 1265z"/>
<path style="fill:#050135; stroke:none;" d="M700 1275C701.506 1275.68 702.315 1275.83 704 1276C702.494 1275.32 701.685 1275.17 700 1275z"/>
<path style="fill:#030137; stroke:none;" d="M749.667 1275.33C749.222 1275.78 750.278 1275.72 750.333 1275.67C750.778 1275.22 749.722 1275.28 749.667 1275.33M697 1277L697 1283C697.951 1280.71 697.951 1279.29 697 1277z"/>
<path style="fill:#030145; stroke:none;" d="M759 1278L759 1282C759.71 1280.24 759.71 1279.76 759 1278z"/>
<path style="fill:#070160; stroke:none;" d="M698 1282C703.707 1284.39 711.846 1283 718 1283L759 1283C753.293 1280.61 745.154 1282 739 1282L698 1282z"/>
</svg>
